<svg xmlns="http://www.w3.org/2000/svg" width="100" height="100" viewBox="0 0 100 100" fill="none"><title>Mescla — trama de pessoas e agentes</title>
<defs><mask id="trama-gaps" maskUnits="userSpaceOnUse" x="0" y="0" width="100" height="100"><rect width="100" height="100" fill="white"/><path d="M59 21H75V25H59ZM59 41H75V45H59ZM25 55H41V59H25ZM25 75H41V79H25ZM21 25H25V41H21ZM41 25H45V41H41ZM55 59H59V75H55ZM75 59H79V75H75Z" fill="black"/></mask></defs>
<g mask="url(#trama-gaps)"><rect x="25" y="10" width="16" height="80" rx="8" fill="#F2B84B"/><rect x="59" y="10" width="16" height="80" rx="8" fill="#F2B84B"/>
<rect x="10" y="25" width="80" height="16" rx="8" fill="#6FD9C9"/><rect x="10" y="59" width="80" height="16" rx="8" fill="#6FD9C9"/>
<rect x="25" y="22" width="16" height="22" fill="#F2B84B"/>
<rect x="59" y="56" width="16" height="22" fill="#F2B84B"/>
</g></svg>
